# xmcd
#
# Track frame offsets:
#	150
#	21249
#	39497
#	63093
#	78994
#	103760
#	120984
#	136720
#	158963
#	173237
#	187848
#	207861
#	237688
#
# Disc length: 3439 seconds
#
# Revision: 0
# Processed by: cddbd v1.5.2PL0 Copyright (c) Steve Scherf et al.
# Submitted via: dBpowerAMP V4.0
#
DISCID=a30d6d0d
DTITLE=D.C. Bellamy - Give Some Body to Somebody
DYEAR=1900
DGENRE=
TTITLE0=I Don't Care About That
TTITLE1=I.C.U. (Saw Me)
TTITLE2=Give Some Body to Somebody
TTITLE3=One's the Woman, One's the Wife
TTITLE4=Room With A View
TTITLE5=First Come, First Served
TTITLE6=What I Caught Him Doin'
TTITLE7=Bury the Bone
TTITLE8=Started Me To Drinkin'
TTITLE9=Why Are People Like That
TTITLE10=Monkey See, Monkey Do
TTITLE11=There's A Rat In My House
TTITLE12=How Much More (How Long)
EXTD=
EXTT0=
EXTT1=
EXTT2=
EXTT3=
EXTT4=
EXTT5=
EXTT6=
EXTT7=
EXTT8=
EXTT9=
EXTT10=
EXTT11=
EXTT12=
PLAYORDER=
